<svg xmlns="http://www.w3.org/2000/svg" viewBox="0 -0.5 73 25" shape-rendering="crispEdges">
<metadata>Made with Pixels to Svg https://codepen.io/shshaw/pen/XbxvNj</metadata>
<path stroke="#8f563b" d="M14 0h1M12 1h1M16 1h1M11 3h1M10 8h1M17 9h1M12 11h1M14 11h1" />
<path stroke="#df7126" d="M15 0h1M13 1h3M12 2h5M12 3h2M15 3h2M11 4h2M15 4h2M25 4h1M11 5h2M15 5h2M21 5h1M11 6h6M11 7h6M11 8h2M14 8h3M10 9h3M14 9h3M10 10h3M14 10h4M20 10h1M11 11h1M15 11h3M15 12h2M24 12h1M18 13h1M21 16h1M60 16h1M64 17h1M58 18h1M64 20h1M59 21h1" />
<path stroke="#37946e" d="M31 1h1M35 1h1M37 2h1M41 4h3M30 5h1M37 5h1M40 5h4M39 6h6M35 7h1M39 7h2M43 7h3M39 8h2M44 8h2M29 9h1M39 9h2M44 9h2M39 10h2M44 10h2M36 11h1M39 11h2M44 11h2M31 12h1M40 12h5M41 13h4" />
<path stroke="#6abe30" d="M32 1h3M31 2h6M31 3h2M35 3h3M31 4h2M35 4h3M31 5h6M30 6h6M30 7h5M30 8h2M33 8h4M30 9h2M33 9h5M29 10h3M34 10h4M29 11h3M34 11h2M30 12h1" />
<path stroke="#5b6ee1" d="M55 1h1M51 2h1M55 2h2M61 2h1M47 3h1M54 3h3M60 3h3M54 4h3M59 4h4M55 5h2M58 5h4M56 6h4M56 7h2M56 8h4M56 9h4M53 10h1M56 10h2M59 10h3M48 11h1M52 11h1M55 11h3M59 11h3M55 12h3M60 12h3M57 13h1M60 13h2" />
<path stroke="#3f3f74" d="M56 1h1M54 2h1M62 2h1M65 4h1M70 4h1M55 6h1M60 6h1M63 6h1M58 7h1M66 7h1M71 8h1M60 9h1M55 10h1M62 11h1M64 11h1M66 11h3M59 12h1M72 12h1M56 13h1M65 14h1M69 14h1" />
<path stroke="#639bff" d="M48 2h3M48 3h4M47 4h3M47 5h2M47 6h2M47 7h2M47 8h2M52 8h2M47 9h3M51 9h3M47 10h6M49 11h3" />
<path stroke="#d95763" d="M3 4h2M1 5h5M0 6h7M0 7h3M5 7h3M0 8h3M5 8h3M0 9h9M2 10h7M6 11h3M2 12h2M6 12h3M2 13h7M1 14h8M12 14h1M3 15h4M15 15h1M4 16h2M9 17h1M8 20h1M11 21h1" />
<path stroke="#fbf236" d="M19 4h2M24 4h1M19 5h2M24 5h2M19 6h3M23 6h3M19 7h3M23 7h3M19 8h7M20 9h6M21 10h4M22 11h3M22 12h2M19 13h1M21 13h3M18 14h6M18 15h5M62 15h1M19 16h2M61 16h2M57 17h7M59 18h9M59 19h7M59 20h5M58 21h1M62 21h2M63 22h1" />
<path stroke="#306082" d="M40 4h1M39 5h1M44 5h1M41 7h1M43 8h1M41 11h1M43 11h1M39 12h1M45 12h1M40 13h1" />
<path stroke="#76428a" d="M66 4h4M64 5h8M64 6h8M63 7h3M63 8h8M64 9h9M70 10h3M65 11h1M69 11h4M64 12h8M64 13h8M66 14h3" />
<path stroke="#ac3232" d="M6 5h1M8 8h1M0 10h2M9 12h1M1 13h1M9 13h1M2 15h1M7 15h1M3 16h1M6 16h1" />
<path stroke="#d77bba" d="M13 14h2M12 15h3M12 16h4M10 17h6M8 18h8M8 19h8M9 20h7M12 21h4" />
<path stroke="#cbdbfc" d="M26 14h3M32 14h1M47 14h1M51 14h4M25 15h5M32 15h2M42 15h1M47 15h2M50 15h5M24 16h3M32 16h2M41 16h2M47 16h2M50 16h2M54 16h2M24 17h2M32 17h2M41 17h2M47 17h2M50 17h2M54 17h2M23 18h2M32 18h2M41 18h2M47 18h2M50 18h5M23 19h2M33 19h2M41 19h2M47 19h2M51 19h5M23 20h2M33 20h2M41 20h2M47 20h2M51 20h2M55 20h2M19 21h1M23 21h2M29 21h1M33 21h2M38 21h1M41 21h2M47 21h2M51 21h2M55 21h2M18 22h3M23 22h3M29 22h2M33 22h7M41 22h2M44 22h5M51 22h6M19 23h2M24 23h7M33 23h7M41 23h7M52 23h3M25 24h4M34 24h2M43 24h2" />
<path stroke="#9badb7" d="M29 14h1M33 14h1M48 14h1M50 14h1M41 15h1M55 15h1M23 17h1M25 18h1M34 18h1M55 18h1M32 19h1M50 19h1M18 21h1M20 21h1M30 21h1M37 21h1M39 21h1M46 21h1M28 22h1M43 22h1M18 23h1M23 23h1M51 23h1M55 23h1M33 24h1M36 24h1M45 24h1" />
</svg>